<?xml version="1.0" encoding="utf-8"?>
<!-- Generator: Adobe Illustrator 26.0.2, SVG Export Plug-In . SVG Version: 6.00 Build 0)  -->
<svg version="1.1" id="Layer_1" xmlns="http://www.w3.org/2000/svg" xmlns:xlink="http://www.w3.org/1999/xlink" x="0px" y="0px"
	 viewBox="0 0 1000 950" style="enable-background:new 0 0 1000 950;" xml:space="preserve">
<style type="text/css">
	.st0{fill:none;stroke:#8E5222;stroke-width:58;stroke-linecap:round;stroke-linejoin:round;stroke-miterlimit:10;}
</style>
<g>
	<polyline class="st0" points="201.9,499.79 377.49,499.79 437.19,319.33 540.82,687.22 621.65,499.79 808.73,499.79 	"/>
	<path class="st0" d="M923.29,152.08c0,0-59.68-125.43-204.97-109.88C563.2,58.8,506.95,220.4,501.4,237.53
		c-7.97-23.75-65.25-177.55-216.38-193.72C139.73,28.27,80.05,153.7,80.05,153.7S-98.63,432.43,248.54,696.69l103.63,88.09
		l150.27,124.36l0,0l148.73-125.97l103.63-88.09C1093.13,422.07,923.29,152.08,923.29,152.08z"/>
</g>
</svg>
