<?xml version="1.0" encoding="utf-8"?>
<!-- Generator: Adobe Illustrator 26.0.2, SVG Export Plug-In . SVG Version: 6.00 Build 0)  -->
<svg version="1.1" id="Layer_1" xmlns="http://www.w3.org/2000/svg" xmlns:xlink="http://www.w3.org/1999/xlink" x="0px" y="0px"
	 viewBox="0 0 1000 1000" style="enable-background:new 0 0 1000 1000;" xml:space="preserve">
<style type="text/css">
	.st0{fill:none;stroke:#3E246A;stroke-width:58;stroke-linecap:round;stroke-linejoin:round;stroke-miterlimit:10;}
	.st1{fill:#3E246A;}
</style>
<g>
	<path class="st0" d="M447.09,565.52C354.01,404.3,400.47,178.36,499.78,34.8c-65.44,5.84-130.68,25.64-191.33,60.65
		C85.54,224.15,9.16,509.18,137.86,732.09s413.73,299.29,636.65,170.59c61.7-35.62,112.14-83.23,150.15-138.17
		C749.55,780.13,540.78,727.79,447.09,565.52z"/>
	<g>
		<path class="st1" d="M771.64,229.21l39.78,80.6l88.95,12.93L836,385.48l15.19,88.59l-79.56-41.83l-79.56,41.83l15.19-88.59
			l-64.36-62.74l88.95-12.93L771.64,229.21 M771.64,171.21c-22.08,0-42.24,12.53-52.01,32.33l-26.28,53.26l-58.77,8.54
			c-21.85,3.17-40,18.48-46.82,39.47c-6.82,21-1.13,44.05,14.68,59.46l42.53,41.46l-10.04,58.54c-3.73,21.76,5.21,43.75,23.07,56.73
			c10.1,7.34,22.07,11.08,34.1,11.08c9.23,0,18.5-2.2,26.98-6.66l52.57-27.64l52.57,27.64c8.48,4.46,17.75,6.66,26.98,6.66
			c12.03,0,23.99-3.74,34.1-11.08c17.86-12.98,26.81-34.97,23.07-56.73l-10.04-58.54l42.53-41.46
			c15.81-15.41,21.5-38.46,14.68-59.46c-6.82-21-24.97-36.3-46.82-39.47l-58.77-8.54l-26.28-53.26
			C813.88,183.74,793.71,171.21,771.64,171.21L771.64,171.21z"/>
	</g>
</g>
</svg>
